<svg width="2048" height="2048" viewBox="0 0 2048 2048" fill="none" xmlns="http://www.w3.org/2000/svg">
<g id="Logo">
<g id="cloud">
<path fill-rule="evenodd" clip-rule="evenodd" d="M1092.62 631.441C1100.37 640.315 1112.4 658.172 1117.52 668.382C1128.98 691.242 1137.42 723.845 1137.48 745.482L1137.5 752.082L1145.58 749.743C1150.02 748.456 1156.54 746.871 1160.08 746.22C1163.61 745.569 1166.5 744.627 1166.5 744.126C1166.5 738.793 1156.55 709.469 1150.98 698.382C1139.02 674.566 1114.22 644.735 1094.5 630.438L1087 625L1092.62 631.441ZM1309.1 803.457C1311.89 806.991 1315.66 812.132 1317.49 814.882C1319.33 817.632 1320.92 820.012 1321.03 820.171C1321.15 820.33 1322.79 819.435 1324.67 818.182L1328.1 815.905L1323.05 811.566C1320.27 809.179 1314.86 804.933 1311.03 802.129L1304.05 797.032L1309.1 803.457ZM1619.24 842.475C1627.93 853.577 1639.03 870.804 1644.94 882.349L1650.64 893.484L1655.32 892.691C1657.89 892.254 1661.68 891.915 1663.73 891.938C1665.79 891.96 1667.13 891.732 1666.71 891.43C1666.3 891.129 1662.14 885.504 1657.48 878.93C1647.07 864.253 1632 848.359 1621.84 841.337L1614.22 836.069L1619.24 842.475ZM1833.15 953.443C1848.68 969.824 1865.27 1003.5 1873.03 1034.38C1883.17 1074.77 1878.16 1111.26 1858.45 1140.51C1853.06 1148.5 1840.8 1161.24 1833.98 1165.94L1828.8 1169.51L1828.17 1179.7C1826.77 1202.31 1822.24 1220.26 1813.49 1237.88C1800.01 1265.05 1780.5 1283.43 1749.32 1298.34C1735.05 1305.17 1719.02 1310.79 1709.5 1312.31C1682.41 1316.64 1658.31 1313.52 1636.9 1302.91L1626.73 1297.88L1631.37 1303.29C1645.17 1319.42 1668.4 1333.69 1689.96 1339.32C1713.58 1345.48 1742.89 1343.51 1766.5 1334.18C1777.7 1329.75 1796.42 1320.23 1804.69 1314.74C1815.26 1307.74 1832.11 1290.69 1839.06 1279.97C1850.34 1262.58 1856.81 1243.73 1859.98 1219.08C1860.82 1212.59 1861.5 1205.32 1861.5 1202.92C1861.5 1198.71 1861.72 1198.4 1867.78 1194.08C1890.79 1177.66 1907.44 1146.8 1910.41 1115.07C1913.98 1077.01 1899.08 1027.61 1873.12 991.382C1863.34 977.733 1847.05 961.685 1832 950.877C1828.09 948.072 1828.12 948.133 1833.15 953.443ZM1473.5 1223.52C1453.44 1236.23 1436.8 1243.03 1418.58 1245.99C1404.34 1248.29 1391.61 1246.34 1379.57 1239.99L1375.14 1237.66L1366.07 1243.63C1341.51 1259.79 1314.66 1268.56 1297 1266.19C1282.64 1264.26 1263.51 1255.8 1247.69 1244.38C1243.11 1241.08 1239.06 1238.4 1238.69 1238.42C1238.31 1238.45 1235.53 1242.61 1232.5 1247.67C1225.13 1260 1206.72 1278.56 1194.27 1286.22C1179.74 1295.16 1160.95 1302.1 1140.83 1305.95C1111.28 1311.6 1065.09 1301.8 1039.5 1284.44C1037.03 1282.76 1034.68 1281.39 1034.28 1281.39C1033.89 1281.38 1028.94 1284.66 1023.28 1288.66C990.705 1311.73 958.583 1327.19 929.5 1333.8C896.664 1341.26 859.042 1338.93 824.156 1327.27C802.765 1320.12 779.109 1306.89 764.594 1293.97C761.517 1291.23 758.031 1288.14 756.846 1287.1L754.692 1285.21L750.983 1291.85C745.705 1301.28 734.907 1314.92 722.606 1327.67C704.373 1346.57 690.512 1356.44 664 1369.37C632.647 1384.66 618.099 1389.12 596.43 1390.07C580.519 1390.77 570.151 1389.52 557.456 1385.37C541.128 1380.03 529.736 1373.35 513.07 1359.34L503.392 1351.2L491.196 1356.66C438.538 1380.22 381.566 1383.79 330 1366.76C309.34 1359.93 288.419 1349.49 274.56 1339.09L268 1334.17L272 1338.38C274.2 1340.69 280.856 1346.78 286.792 1351.91C314.566 1375.9 348.478 1393.33 382.023 1400.87C429.147 1411.46 475.718 1406.47 523.774 1385.7C534.87 1380.9 536.773 1380.35 538.267 1381.53C539.213 1382.27 543.156 1385.61 547.028 1388.95C581.683 1418.81 622.434 1426.88 664.339 1412.18C688.428 1403.74 715.495 1389.92 732.04 1377.63C748.877 1365.12 772.13 1339.91 782.501 1322.92C784.976 1318.86 787.322 1315.23 787.713 1314.84C788.104 1314.44 791.704 1317.16 795.712 1320.87C829.332 1352 884.244 1369.68 936.689 1366.26C961.362 1364.65 982.535 1358.43 1011 1344.42C1029.45 1335.34 1038.78 1329.77 1056.29 1317.43C1061.79 1313.55 1066.82 1310.38 1067.47 1310.38C1068.11 1310.38 1070.6 1311.73 1072.99 1313.38C1083.21 1320.41 1099.19 1327.33 1113.43 1330.88C1134.92 1336.26 1156.34 1337.73 1172.27 1334.92C1215.43 1327.33 1247.26 1306.88 1266.59 1274.35C1268.87 1270.52 1271.18 1267.38 1271.74 1267.38C1272.3 1267.38 1275.74 1269.57 1279.38 1272.24C1298.71 1286.4 1321.06 1295.39 1336.91 1295.38C1353.67 1295.36 1377.07 1286.66 1399.13 1272.24L1408.27 1266.27L1411.63 1268.34C1413.49 1269.48 1418.51 1271.53 1422.8 1272.9C1445.15 1280.01 1475.68 1272.39 1507.28 1251.79L1515.64 1246.34L1521.82 1251.7C1536.4 1264.34 1546.38 1270.29 1562.2 1275.76C1575.99 1280.52 1585.65 1282.38 1596.57 1282.38H1605.73L1599.86 1276.11C1596.64 1272.66 1591.13 1266.36 1587.61 1262.11L1581.23 1254.38L1573.11 1254.27C1568.65 1254.21 1563.65 1254.02 1562 1253.85C1560.35 1253.68 1555.86 1253.27 1552.03 1252.93C1543.18 1252.16 1523.6 1245.66 1512.77 1239.9C1503.77 1235.12 1494.54 1228.5 1487.5 1221.78L1483 1217.5L1473.5 1223.52Z" fill="#C4A699"/>
<path fill-rule="evenodd" clip-rule="evenodd" d="M830.449 577.962C811.232 581.245 776.299 596.339 760.838 608.042C757.266 610.746 753.851 612.958 753.249 612.958C752.647 612.958 750.309 611.476 748.052 609.665C728.07 593.625 699.901 585.469 676.373 588.909C647.586 593.118 612.419 612.346 589.834 636.225C583.285 643.15 564.5 669.324 563.121 673.446C562.939 673.989 559.226 672.761 554.87 670.717C544.709 665.95 532.608 662.346 519.971 660.322C507.776 658.37 481.255 658.935 468.959 661.408C419.208 671.419 377.967 699.908 357.988 738.066L352.869 747.842L340.409 754.22C301.781 773.995 269.102 800.955 239.602 837.385C220.801 860.604 197.746 899.995 185.592 929.666C149.594 1017.54 145.161 1115.62 173.375 1199.96C188.822 1246.13 212.45 1284.48 244.554 1315.46C277.389 1347.15 315.138 1366.72 359.449 1375.02C375.739 1378.08 407.334 1378.81 423.949 1376.51C447.761 1373.22 470.561 1366.67 493.299 1356.58L503.648 1351.98L510.299 1357.85C526.644 1372.28 544.299 1382.43 561.949 1387.55C572.97 1390.75 595.203 1391.93 608.582 1390.03C628.701 1387.18 669.006 1370.06 691.949 1354.63C700.799 1348.68 711.013 1340.38 717.937 1333.52C731.249 1320.33 746.211 1301.57 752.446 1290.26L754.761 1286.06L761.855 1292.39C784.653 1312.72 815.256 1327.7 847.641 1334.38C883.844 1341.83 916.258 1340.1 948.982 1328.96C972.161 1321.06 1006.56 1302.26 1031.1 1284.06L1034.25 1281.73L1038.8 1284.86C1046.21 1289.95 1065.28 1298.72 1074.95 1301.48C1096.58 1307.66 1124.75 1309.78 1141.78 1306.52C1172.59 1300.63 1198.47 1287.53 1216.81 1268.56C1220.58 1264.65 1227.04 1256.4 1231.17 1250.22C1235.41 1243.84 1239.12 1239.25 1239.71 1239.62C1240.29 1239.98 1244.18 1242.72 1248.35 1245.72C1262.99 1256.24 1282.5 1264.71 1297.42 1267.02C1313.35 1269.49 1342.2 1260.02 1366.01 1244.51C1370.69 1241.46 1374.93 1238.96 1375.43 1238.96C1375.93 1238.96 1377.82 1239.82 1379.64 1240.88C1385.14 1244.07 1395.51 1247 1403.45 1247.61C1422.37 1249.06 1448.84 1240.26 1473.06 1224.47C1477.71 1221.44 1482.01 1218.96 1482.6 1218.96C1483.2 1218.96 1486.31 1221.39 1489.52 1224.37C1510.58 1243.86 1540.42 1254.92 1572.02 1254.95L1581.1 1254.96L1586.52 1261.71C1595.02 1272.28 1610.35 1287.76 1617.09 1292.59C1625.24 1298.42 1643.01 1307.17 1652.95 1310.26C1664.74 1313.92 1677.48 1315.35 1692.25 1314.68C1714.15 1313.69 1728.16 1309.62 1753.45 1296.93C1770.66 1288.29 1779.68 1281.92 1791.07 1270.37C1814.08 1247.05 1826.05 1218.1 1828.15 1180.72C1828.75 1169.98 1828.75 1169.98 1831.89 1168.12C1833.62 1167.1 1838.21 1163.54 1842.08 1160.21C1867.75 1138.11 1881.9 1097.82 1877.53 1059.25C1875.01 1037.09 1867.78 1012.75 1857.32 991.268C1831.97 939.213 1788.97 906.143 1729.23 892.761C1720.11 890.719 1716.4 890.463 1696.45 890.506C1676.96 890.548 1663.4 891.503 1653.27 893.546C1650.73 894.058 1650.32 893.546 1645.43 883.772C1635.33 863.547 1614.21 834.307 1600.93 822.152C1591.91 813.896 1585.03 809.455 1567.4 800.493C1551.27 792.295 1540.91 787.935 1529.02 784.35C1500.78 775.828 1451.34 774.17 1414.8 780.518C1389.49 784.914 1347.95 801.857 1328.81 815.591C1324.63 818.592 1321.13 820.914 1321.04 820.752C1313.64 807.51 1294.98 786.044 1282.8 776.779C1261.57 760.615 1230.18 748.936 1198.15 745.278C1181.35 743.359 1167.99 744.305 1151.82 748.557C1146.39 749.985 1140.94 751.386 1139.7 751.672C1137.53 752.173 1137.45 751.942 1137.45 745.068C1137.45 730.999 1132.83 707.773 1126.37 689.315C1119.29 669.12 1105.75 646.775 1087.95 625.907C1065.51 599.608 1035.82 583.615 1006.8 582.2C995.11 581.63 983.858 583.237 962.03 588.594C943.16 593.224 935.441 596.109 926.113 602.016L918.277 606.978L910.376 601.024C896.167 590.317 882.965 584.073 864.571 579.361C854.805 576.859 840.371 576.267 830.449 577.962ZM855.927 579.018C874.999 581.671 896.287 591.529 914.767 606.265L918.286 609.071L923.118 605.63C934.507 597.519 950.694 591.798 977.558 586.389C1003.18 581.231 1021.6 583.04 1042.7 592.786C1064.59 602.901 1081.25 617.734 1100.71 644.458C1121.45 672.935 1132.55 703.171 1135.61 739.458C1136.25 747.158 1136.87 753.586 1136.98 753.742C1137.09 753.899 1141.86 752.72 1147.57 751.122C1163.4 746.693 1173.18 745.567 1189.62 746.278C1197.5 746.619 1208.22 747.767 1213.45 748.828C1235.68 753.346 1263.73 764.865 1278.95 775.731C1291.09 784.399 1306.48 801.039 1315.97 815.765C1318.16 819.162 1320.56 821.944 1321.31 821.949C1322.05 821.954 1324.3 820.666 1326.31 819.087C1340.6 807.824 1372.08 793.38 1398.42 785.998C1423.92 778.85 1454.16 776.468 1487.45 778.983C1519.1 781.375 1536.96 786.528 1567.67 802.131C1582.59 809.712 1592.27 816.045 1600.37 823.527C1613.36 835.509 1633.26 863.102 1643.78 883.708C1646.95 889.896 1650.15 894.958 1650.9 894.958C1651.65 894.958 1658.26 894.239 1665.6 893.359C1684.93 891.044 1712.56 891.012 1723.95 893.291C1765.31 901.57 1796.23 917.554 1822.95 944.461C1835.95 957.558 1844.6 969.834 1854.35 989.038C1862.76 1005.61 1869.66 1024.99 1873.67 1043.31C1875.58 1052.02 1875.89 1056.43 1875.88 1074.46C1875.86 1094.09 1875.69 1096.1 1873.18 1105.35C1866.34 1130.56 1850.27 1154.28 1831.84 1166.34L1827.74 1169.03L1827.06 1178.75C1824.48 1215.63 1815.75 1239.3 1795.95 1263.07C1784.05 1277.35 1770.59 1287.19 1748.26 1297.9C1723.01 1310.01 1709.88 1313.23 1685.95 1313.18C1668.39 1313.14 1657.68 1311.17 1643.83 1305.44C1621.83 1296.33 1606.59 1284.21 1587.59 1260.71L1581.32 1252.96H1568.47C1553.87 1252.96 1544.53 1251.44 1531.22 1246.9C1514.27 1241.12 1501.05 1233.34 1489.36 1222.26C1486.28 1219.34 1483.4 1216.96 1482.95 1216.96C1482.5 1216.96 1477.91 1219.7 1472.74 1223.04C1450.39 1237.52 1426.49 1245.98 1408.09 1245.93C1396.84 1245.9 1392.09 1244.87 1382.36 1240.33L1374.77 1236.79L1366.51 1242.41C1355.23 1250.1 1341.18 1256.97 1327.45 1261.53C1316.7 1265.09 1315.16 1265.34 1303.95 1265.35C1293.41 1265.36 1290.98 1265.03 1283.99 1262.6C1272.88 1258.74 1257.84 1250.81 1247.4 1243.31C1242.53 1239.82 1238.38 1236.96 1238.17 1236.96C1237.97 1236.96 1235.21 1241.14 1232.05 1246.26C1216.17 1271.92 1193.83 1289.55 1165.45 1298.82C1145.05 1305.49 1139.48 1306.42 1120.45 1306.38C1105.42 1306.35 1101.19 1305.97 1090.44 1303.7C1069.66 1299.29 1053.32 1292.82 1039.61 1283.57L1034.26 1279.97L1021.61 1288.87C1003.87 1301.34 994.35 1306.98 975.949 1315.95C957.327 1325.01 944.602 1329.67 927.926 1333.52C917.492 1335.93 913.292 1336.34 895.328 1336.73C882.681 1337.01 871.273 1336.73 865.828 1336.02C824.633 1330.62 790.272 1315.7 762.799 1291.31C758.867 1287.82 755.181 1284.96 754.608 1284.96C754.035 1284.96 752.185 1287.55 750.498 1290.72C744.164 1302.6 726.432 1323.83 711.46 1337.46C698.995 1348.81 686.08 1357.41 667.407 1366.81C630.365 1385.46 609.237 1391.21 583.767 1389.56C557.659 1387.87 534.636 1377.47 511.315 1356.83C507.667 1353.6 504.016 1350.96 503.204 1350.96C502.391 1350.96 497.791 1352.8 492.982 1355.06C474.185 1363.86 448.098 1371.65 427.888 1374.49C360.066 1384.01 295.525 1362.65 245.108 1314.01C216.965 1286.85 196.153 1254.96 180.105 1214.38C156.439 1154.54 150.284 1081.42 163.063 1011.96C177.459 933.706 213.663 862.611 265.419 810.953C288.872 787.544 311.249 771.071 339.044 756.751L354.245 748.92L357.753 741.533C363.511 729.409 371.085 719.105 382.842 707.402C428.511 661.944 504.606 646.92 556.67 673.083C559.817 674.664 562.571 675.958 562.791 675.958C563.01 675.958 565.822 671.795 569.041 666.708C580.098 649.228 583.805 644.434 594.365 633.958C614.67 613.814 642.396 598.17 668.949 591.874C680.796 589.065 700.865 589.57 712.449 592.968C723.104 596.093 736.74 602.921 745.265 609.399C749.289 612.456 752.834 614.958 753.143 614.958C753.452 614.958 756.684 612.773 760.327 610.102C783.141 593.372 821.183 578.842 844.127 578.094C846.424 578.019 851.734 578.435 855.927 579.018Z" fill="white"/>
<path d="M855.927 579.018C874.999 581.671 896.287 591.529 914.767 606.265L918.286 609.071L923.118 605.63C934.507 597.519 950.694 591.798 977.558 586.389C1003.18 581.231 1021.6 583.04 1042.7 592.786C1064.59 602.901 1081.25 617.734 1100.71 644.458C1121.45 672.935 1132.55 703.171 1135.61 739.458C1136.25 747.158 1136.87 753.586 1136.98 753.742C1137.09 753.899 1141.86 752.72 1147.57 751.122C1163.4 746.693 1173.18 745.567 1189.62 746.278C1197.5 746.619 1208.22 747.767 1213.45 748.828C1235.68 753.346 1263.73 764.865 1278.95 775.731C1291.09 784.399 1306.48 801.039 1315.97 815.765C1318.16 819.162 1320.56 821.944 1321.31 821.949C1322.05 821.954 1324.3 820.666 1326.31 819.087C1340.6 807.824 1372.08 793.38 1398.42 785.998C1423.92 778.85 1454.16 776.468 1487.45 778.983C1519.1 781.375 1536.96 786.528 1567.67 802.131C1582.59 809.712 1592.27 816.045 1600.37 823.527C1613.36 835.509 1633.26 863.102 1643.78 883.708C1646.95 889.896 1650.15 894.958 1650.9 894.958C1651.65 894.958 1658.26 894.239 1665.6 893.359C1684.93 891.044 1712.56 891.012 1723.95 893.291C1765.31 901.57 1796.23 917.554 1822.95 944.461C1835.95 957.558 1844.6 969.834 1854.35 989.038C1862.76 1005.61 1869.66 1024.99 1873.67 1043.31C1875.58 1052.02 1875.89 1056.43 1875.88 1074.46C1875.86 1094.09 1875.69 1096.1 1873.18 1105.35C1866.34 1130.56 1850.27 1154.28 1831.84 1166.34L1827.74 1169.03L1827.06 1178.75C1824.48 1215.63 1815.75 1239.3 1795.95 1263.07C1784.05 1277.35 1770.59 1287.19 1748.26 1297.9C1723.01 1310.01 1709.88 1313.23 1685.95 1313.18C1668.39 1313.14 1657.68 1311.17 1643.83 1305.44C1621.83 1296.33 1606.59 1284.21 1587.59 1260.71L1581.32 1252.96H1568.47C1553.87 1252.96 1544.53 1251.44 1531.22 1246.9C1514.27 1241.12 1501.05 1233.34 1489.36 1222.26C1486.28 1219.34 1483.4 1216.96 1482.95 1216.96C1482.5 1216.96 1477.91 1219.7 1472.74 1223.04C1450.39 1237.52 1426.49 1245.98 1408.09 1245.93C1396.84 1245.9 1392.09 1244.87 1382.36 1240.33L1374.77 1236.79L1366.51 1242.41C1355.23 1250.1 1341.18 1256.97 1327.45 1261.53C1316.7 1265.09 1315.16 1265.34 1303.95 1265.35C1293.41 1265.36 1290.98 1265.03 1283.99 1262.6C1272.88 1258.74 1257.84 1250.81 1247.4 1243.31C1242.53 1239.82 1238.38 1236.96 1238.17 1236.96C1237.97 1236.96 1235.21 1241.14 1232.05 1246.26C1216.17 1271.92 1193.83 1289.55 1165.45 1298.82C1145.05 1305.49 1139.48 1306.42 1120.45 1306.38C1105.42 1306.35 1101.19 1305.97 1090.44 1303.7C1069.66 1299.29 1053.32 1292.82 1039.61 1283.57L1034.26 1279.97L1021.61 1288.87C1003.87 1301.34 994.35 1306.98 975.949 1315.95C957.327 1325.01 944.602 1329.67 927.926 1333.52C917.492 1335.93 913.292 1336.34 895.328 1336.73C882.681 1337.01 871.273 1336.73 865.828 1336.02C824.633 1330.62 790.272 1315.7 762.799 1291.31C758.867 1287.82 755.181 1284.96 754.608 1284.96C754.035 1284.96 752.185 1287.55 750.498 1290.72C744.164 1302.6 726.432 1323.83 711.46 1337.46C698.995 1348.81 686.08 1357.41 667.407 1366.81C630.365 1385.46 609.237 1391.21 583.767 1389.56C557.659 1387.87 534.636 1377.47 511.315 1356.83C507.667 1353.6 504.016 1350.96 503.204 1350.96C502.391 1350.96 497.791 1352.8 492.982 1355.06C474.185 1363.86 448.098 1371.65 427.888 1374.49C360.066 1384.01 295.525 1362.65 245.108 1314.01C216.965 1286.85 196.153 1254.96 180.105 1214.38C156.439 1154.54 150.284 1081.42 163.063 1011.96C177.459 933.706 213.663 862.611 265.419 810.953C288.872 787.544 311.249 771.071 339.044 756.751L354.245 748.92L357.753 741.533C363.511 729.409 371.085 719.105 382.842 707.402C428.511 661.944 504.606 646.92 556.67 673.083C559.817 674.664 562.571 675.958 562.791 675.958C563.01 675.958 565.822 671.795 569.041 666.708C580.098 649.228 583.805 644.434 594.365 633.958C614.67 613.814 642.396 598.17 668.949 591.874C680.796 589.065 700.865 589.57 712.449 592.968C723.104 596.093 736.74 602.921 745.265 609.399C749.289 612.456 752.834 614.958 753.143 614.958C753.452 614.958 756.684 612.773 760.327 610.102C783.141 593.372 821.183 578.842 844.127 578.094C846.424 578.019 851.734 578.435 855.927 579.018Z" fill="white"/>
</g>
<path id="100Questions" fill-rule="evenodd" clip-rule="evenodd" d="M678.034 626.553C668.511 631.462 634.109 672.377 622.617 692.462C617.438 701.513 616.737 705.372 619.471 709.744C621.147 712.423 622.13 712.994 625.068 712.994C629.903 712.994 633.885 710.753 640.862 704.104C647.805 697.488 654.248 689.554 662.52 677.432C665.828 672.585 668.534 668.892 668.534 669.226C668.534 669.56 666.972 679.432 665.062 691.164C663.155 702.895 657.513 740.844 652.526 775.494C642.126 847.761 636.856 881.072 635.632 882.296C635.161 882.767 630.333 883.546 624.904 884.028C611.484 885.22 609.204 885.789 605.52 888.864C599.507 893.884 600.384 905.272 607.026 908.424C613.973 911.72 659.725 909.698 684.628 904.994C706.654 900.834 718.718 894.12 715.437 887.849C714.031 885.163 709.405 884.156 690.742 882.47C666.868 880.313 668.251 880.71 668.934 876.205C673.464 846.316 676.637 830.087 692.973 753.26C702.52 708.358 707.695 674.288 707.651 656.64C707.6 636.121 699.913 624.982 685.815 625C683.185 625.004 679.684 625.702 678.034 626.553ZM827.268 628.082C803.63 633.651 780.954 670.636 762.508 733.707C751.097 772.727 745.886 820.325 750.003 847.934C754.228 876.265 763.386 894.917 778.018 904.984C789.526 912.901 806.89 914.297 819.635 908.329C839.622 898.97 858.165 869.748 871.117 827.196C882.383 790.184 890.544 740.962 890.528 710.104C890.504 662.931 872.085 632.292 841.211 628.065C832.418 626.861 832.451 626.861 827.268 628.082ZM999.268 628.082C975.63 633.651 952.954 670.636 934.508 733.707C923.097 772.727 917.886 820.325 922.003 847.934C926.228 876.265 935.386 894.917 950.018 904.984C961.526 912.901 978.89 914.297 991.635 908.329C1011.62 898.97 1030.17 869.748 1043.12 827.196C1054.38 790.184 1062.54 740.962 1062.53 710.104C1062.5 662.931 1044.09 632.292 1013.21 628.065C1004.42 626.861 1004.45 626.861 999.268 628.082ZM856.45 665.756C862.153 671.459 866.534 688.816 866.533 705.702C866.532 730.712 857.117 791.711 847.968 825.994C839.068 859.34 828.848 880.668 818.68 887.116C805.906 895.218 794.792 885.387 789.568 861.365C779.975 817.253 789.831 758.164 816.357 700.752C829.633 672.02 847.296 656.602 856.45 665.756ZM1028.45 665.756C1034.15 671.459 1038.53 688.816 1038.53 705.702C1038.53 730.712 1029.12 791.711 1019.97 825.994C1011.07 859.34 1000.85 880.668 990.68 887.116C977.906 895.218 966.792 885.387 961.568 861.365C951.975 817.253 961.831 758.164 988.357 700.752C1001.63 672.02 1019.3 656.602 1028.45 665.756ZM412.123 836.024C380.089 839.684 349.524 852.59 325.534 872.585C293.714 899.107 273.097 933.926 263.898 976.679C261.384 988.362 261.137 991.393 261.094 1010.99C261.042 1034.94 262.168 1043.52 268.048 1063.99L271.35 1075.49L266.374 1083.75C238.993 1129.15 228.393 1181.65 239.126 1218.72C243.306 1233.16 249.617 1243.98 260.034 1254.56C273.6 1268.35 287.382 1275.58 308.815 1280.15C322.19 1283 344.865 1283.24 357.809 1280.66C374.335 1277.38 394.85 1268.63 407.904 1259.31L412.774 1255.83L421.404 1261.79C447.918 1280.1 480.024 1296.03 505.298 1303.4C530.865 1310.86 558.6 1314.08 567 1310.57C570.805 1308.98 573.534 1304.62 573.534 1300.12C573.534 1295.86 569.989 1294.02 547.325 1286.58C536.651 1283.07 522.842 1278.12 516.638 1275.58C496.08 1267.16 467.122 1251.92 447.263 1239.06L438.491 1233.38L444.067 1227.22C492.334 1173.88 530.741 1072.12 533.221 990.994C534.03 964.537 531.289 939.32 525.487 919.839C524.335 915.97 523.604 912.254 523.862 911.582C524.12 910.91 528.424 907.997 533.427 905.11C548.324 896.513 556.438 889.491 556.5 885.145C556.612 877.2 548.107 870.474 538.034 870.542C532.255 870.581 530.321 871.207 509.871 879.66C509.232 879.925 506.9 877.48 504.691 874.227C492.068 855.639 472.104 842.19 450.034 837.409C441.293 835.516 422.561 834.831 412.123 836.024ZM446.776 871.241C456.892 874.991 463.959 879.692 471.692 887.814L478.662 895.134L464.923 903.167C408.605 936.094 362.227 971.802 321.977 1013.22C313.759 1021.68 305.009 1031.15 302.534 1034.25C300.059 1037.36 297.697 1039.92 297.284 1039.95C296.008 1040.03 296.457 1022.69 298.045 1010.57C306.133 948.872 344.423 892.836 391.034 874.483C403.238 869.677 413.482 867.963 427.534 868.375C437.797 868.676 441.24 869.189 446.776 871.241ZM1104.56 889.731C1092.6 893.953 1083.16 910.309 1066.33 955.965C1063.6 963.374 1060.94 970.237 1060.42 971.215C1059.6 972.741 1058.01 972.995 1049.25 973C1043.63 973.003 1037.29 973.49 1035.16 974.082C1024.74 976.975 1023.49 987.372 1033 991.979C1036.07 993.463 1039.19 993.994 1044.85 993.994C1049.73 993.994 1052.53 994.392 1052.53 995.085C1052.53 995.684 1050.28 1004.35 1047.53 1014.34C1044.78 1024.32 1041.05 1039.61 1039.24 1048.3L1035.96 1064.1L1025.99 1068.09C1012.07 1073.67 988.568 1085.43 972.13 1095.04C964.483 1099.52 957.664 1103.39 956.979 1103.65C955.15 1104.36 931.062 1088.33 923.737 1081.53C915.624 1074.01 912.493 1068.65 911.81 1061.11C910.127 1042.55 927.628 1012.15 944.221 1004.81C954.069 1000.45 965.04 1003.21 969.512 1011.17C972.562 1016.6 972.438 1025.58 969.128 1038.99C966.253 1050.64 966.039 1053.28 967.604 1057.76C968.992 1061.75 974.198 1064.33 979.003 1063.43C991.971 1061 1002.07 1044.98 1001.99 1026.99C1001.86 1001.69 989.353 985.338 966.753 980.943C956.264 978.903 938.769 980.176 928.331 983.738C902.78 992.456 884.407 1012.46 876.49 1040.17C875.094 1045.05 874.206 1051.82 873.823 1060.49C873.274 1072.93 873.116 1073.69 870.172 1077.99C862.946 1088.56 846.982 1107.31 837.766 1116.06C821.612 1131.39 809.604 1137.01 800.641 1133.42C792.456 1130.15 785.534 1117.77 785.534 1106.41C785.534 1102.43 785.784 1101.98 788.284 1101.5C789.797 1101.21 793.953 1100.03 797.52 1098.88C832.168 1087.69 859.377 1035.64 843.589 1010.74C835.88 998.586 814.599 996.781 794.669 1006.59C786.186 1010.77 774.732 1021.06 767.888 1030.65C759.14 1042.91 750.455 1063.51 747.469 1079.08C746.217 1085.61 740.117 1096.03 714.749 1134.99C700.373 1157.07 691.387 1166.99 685.765 1166.99C682.452 1166.99 681.532 1164.01 681.552 1153.31C681.576 1140.61 683.269 1129.02 689.965 1095.71C700.301 1044.29 700.736 1031.51 692.455 1022.52C688.208 1017.92 681.208 1014.99 674.422 1014.99C666.613 1014.99 660.089 1023.66 642.046 1057.99C628.786 1083.23 624.839 1090.12 617.365 1101.11C602.391 1123.11 585.035 1131.62 579.948 1119.45C577.184 1112.83 578.74 1093.98 583.573 1075.49C584.724 1071.09 589.479 1055.89 594.14 1041.71C603.182 1014.21 603.419 1012.63 599.482 1006.15C597.222 1002.43 592.758 1001.04 586.726 1002.16C579.912 1003.42 575.453 1005.97 569.471 1012.03C549.075 1032.68 535.91 1093.77 544.564 1127.61C549.36 1146.36 559.454 1155.71 576.034 1156.76C600.115 1158.28 624.274 1139.64 641.826 1105.99C644.838 1100.22 648.103 1093.24 649.083 1090.49C650.87 1085.48 653.297 1081.58 652.195 1085.49C650.877 1090.18 645.242 1120.53 643.469 1132.49C640.128 1155.04 641.25 1172.48 646.74 1183.36C649.834 1189.49 656.942 1195.74 662.789 1197.48C679.179 1202.35 696.202 1195.62 713.344 1177.51C720.871 1169.56 735.383 1148.95 744.148 1133.76C746.285 1130.06 748.317 1127.02 748.663 1127.01C749.008 1127 749.879 1128.46 750.596 1130.24C752.75 1135.61 758.962 1144.2 764.273 1149.16C776.662 1160.73 791.726 1163.37 811.534 1157.43C835.078 1150.36 861.955 1129.21 877.291 1105.67C879.863 1101.72 882.104 1098.3 882.273 1098.05C882.441 1097.81 883.339 1098.71 884.266 1100.05C889.888 1108.19 898.248 1115.02 918.112 1127.72C919.914 1128.87 919.757 1129.18 915.559 1132.72C884.905 1158.56 868.529 1180.35 865.557 1199.24C862.43 1219.13 872.88 1238.96 891.034 1247.59C903.701 1253.62 918.457 1254.04 935.26 1248.85C965.223 1239.61 992.214 1212.8 998.075 1186.46C1000.04 1177.6 999.629 1164.49 997.076 1154.99C994.735 1146.29 988.184 1134.08 981.734 1126.4L975.801 1119.33L1000.92 1104.19C1014.73 1095.87 1027.52 1088.08 1029.34 1086.89L1032.64 1084.73L1031.84 1095.11C1030.47 1112.8 1031.02 1141.35 1032.95 1152.49C1035.1 1164.94 1040.16 1180.13 1044.63 1187.55C1046.5 1190.66 1050.82 1195.81 1054.22 1199C1062.19 1206.48 1069 1209.22 1080.03 1209.38C1087.29 1209.48 1088.59 1209.19 1094.03 1206.22C1105.81 1199.81 1119.46 1186.17 1134.81 1165.49C1143.58 1153.68 1157.13 1132.66 1161.46 1124.15C1162.68 1121.76 1163.88 1120 1164.12 1120.25C1164.37 1120.5 1165.2 1124.27 1165.97 1128.62C1168.41 1142.5 1172.27 1152.35 1177.71 1158.54C1186.58 1168.64 1198.35 1169.07 1212.53 1159.81C1219.74 1155.1 1236.91 1138.91 1243.66 1130.45L1248.01 1124.99L1249.22 1134.74C1254.02 1173.64 1276.89 1197.91 1304.99 1193.93C1319.65 1191.85 1330.82 1185.81 1343.58 1173.04C1356.7 1159.92 1367.37 1142.26 1374.47 1121.96L1376.75 1115.43L1384.39 1113.69C1396.19 1111 1412.86 1102.47 1426.24 1092.27L1429.88 1089.5L1429.15 1092.39C1427.78 1097.84 1428.31 1127.14 1429.98 1138.17C1431.55 1148.57 1434.36 1158.82 1437.09 1164.1C1437.83 1165.53 1440.04 1168.11 1442.02 1169.85C1450.81 1177.57 1461.07 1171.26 1473.4 1150.56C1480.49 1138.66 1488.81 1120.82 1503.13 1086.81C1515.47 1057.51 1523.06 1040.76 1527.86 1032.3C1537.93 1014.5 1544.94 1008.47 1551.48 1011.97C1556.91 1014.87 1558.34 1032.36 1554.63 1050.49C1553.51 1055.99 1549.18 1072.36 1545.02 1086.85C1531.8 1132.87 1528.51 1149.35 1528.55 1169.28C1528.64 1208.85 1547.51 1214.9 1577.63 1185.01C1595.4 1167.37 1611.74 1143.81 1626.65 1114.3L1635.34 1097.11L1638.04 1101C1642.24 1107.06 1650.43 1114.31 1660.26 1120.68C1665.2 1123.88 1670.1 1127.05 1671.14 1127.72C1672.91 1128.87 1672.74 1129.2 1668.56 1132.72C1637.9 1158.56 1621.53 1180.35 1618.56 1199.24C1615.43 1219.13 1625.88 1238.96 1644.03 1247.59C1656.7 1253.62 1671.46 1254.04 1688.26 1248.85C1718.22 1239.61 1745.21 1212.8 1751.07 1186.46C1753.04 1177.6 1752.63 1164.49 1750.08 1154.99C1747.73 1146.29 1741.18 1134.08 1734.73 1126.4L1728.8 1119.33L1746.92 1108.5C1789.82 1082.85 1806.53 1071.37 1806.53 1067.53C1806.53 1064.38 1803.72 1060.99 1801.09 1060.99C1791.92 1060.99 1754.01 1078.18 1722.45 1096.63C1715.53 1100.68 1709.56 1103.99 1709.19 1103.99C1707.33 1103.99 1682.21 1086.61 1676.74 1081.53C1668.62 1074.01 1665.49 1068.65 1664.81 1061.11C1663.13 1042.55 1680.63 1012.15 1697.22 1004.81C1707.07 1000.45 1718.04 1003.21 1722.51 1011.17C1725.56 1016.6 1725.44 1025.58 1722.13 1038.99C1719.25 1050.64 1719.04 1053.28 1720.6 1057.76C1721.99 1061.75 1727.2 1064.33 1732 1063.43C1744.97 1061 1755.07 1044.98 1754.99 1026.99C1754.86 1001.69 1742.35 985.338 1719.75 980.943C1709.26 978.903 1691.77 980.176 1681.33 983.738C1655.78 992.456 1637.41 1012.46 1629.49 1040.17C1628.1 1045.05 1627.2 1051.84 1626.82 1060.49L1626.24 1073.49L1621.94 1079.1C1619.58 1082.18 1610.14 1096.13 1600.96 1110.1C1576.49 1147.33 1571.91 1154.17 1569.21 1157.46C1567.02 1160.13 1566.59 1160.29 1565.02 1158.98C1563.5 1157.72 1563.34 1156.28 1563.83 1148.01C1564.48 1136.76 1566.8 1128.4 1576.62 1101.77C1592.16 1059.6 1595.51 1042.65 1592.13 1023.18C1587.24 995.017 1574.78 976.803 1558.78 974.403C1535.43 970.903 1509.13 1005.08 1477.87 1079.49C1474.4 1087.74 1471.56 1093.73 1471.55 1092.8C1471.54 1091.86 1472.89 1081.06 1474.55 1068.8C1481.37 1018.4 1480.03 997.851 1469.49 991.63C1455.52 983.377 1442.57 1004.34 1434.99 1047.47C1433.64 1055.16 1432.53 1061.58 1432.53 1061.74C1432.53 1061.9 1429.5 1064 1425.78 1066.4C1415.49 1073.05 1400.64 1080.73 1391.9 1083.92L1384.03 1086.79L1383.93 1070.14C1383.85 1057.09 1383.35 1051.24 1381.63 1043.06C1375.7 1015 1361.66 992.627 1345.13 984.894C1339.13 982.087 1337.74 981.82 1330.76 982.154C1319.29 982.704 1311.5 986.679 1300.95 997.374C1290.84 1007.62 1286.11 1016.6 1284.38 1028.78C1283.26 1036.71 1283.15 1036.93 1277.76 1042.17C1271.12 1048.62 1264.88 1057.26 1260.54 1065.99C1258.77 1069.57 1254.75 1075.87 1251.62 1079.99C1248.49 1084.12 1240.59 1095.09 1234.07 1104.37C1221.96 1121.63 1211.93 1133.42 1208.41 1134.53C1205.3 1135.52 1201.75 1132.49 1200.45 1127.75C1198.96 1122.28 1199.83 1099.73 1202.01 1087.49C1204.19 1075.26 1206.54 1067.53 1214.32 1046.99C1220.37 1031.03 1220.95 1028.82 1220.99 1021.77C1221.03 1014.35 1220.9 1013.91 1217.77 1010.77C1214.73 1007.73 1213.98 1007.49 1206.77 1007.18C1199.77 1006.89 1198.65 1007.11 1195.03 1009.52C1185.04 1016.17 1176.72 1032.19 1170.53 1056.7C1168.73 1063.81 1166.64 1069.47 1164.8 1072.2C1161.37 1077.29 1156.76 1085.28 1141.01 1113.49C1116.08 1158.11 1101.28 1178.04 1090.93 1180.89C1082.5 1183.22 1075.95 1177.44 1072.35 1164.49C1070.34 1157.22 1070.13 1154.26 1070.14 1131.99C1070.15 1112.25 1070.59 1104.2 1072.42 1090.49C1076.07 1063.16 1080.34 1041.92 1088.24 1011.81C1092.17 996.875 1093.21 994.049 1094.96 993.578C1096.1 993.272 1107.16 993.012 1119.53 993C1131.91 992.988 1144.91 992.513 1148.42 991.943C1154.83 990.903 1160.4 988.675 1161.77 986.604C1163.91 983.369 1161.34 975.033 1157.59 973.024C1156.4 972.389 1145.09 971.994 1128.1 971.994C1112.94 971.994 1100.53 971.709 1100.53 971.36C1100.53 967.96 1114.4 933.56 1122.45 916.994C1126.98 907.664 1128.53 903.407 1128.53 900.209C1128.54 892.253 1123.49 887.937 1114.33 888.073C1111.42 888.116 1107.02 888.862 1104.56 889.731ZM498.576 943.279C501.248 956.392 502.176 979.701 500.647 995.275C493.935 1063.61 460.784 1147.43 418.789 1202.24C414.681 1207.61 410.871 1211.99 410.323 1211.99C409.775 1211.99 404.986 1208.31 399.68 1203.8C360.459 1170.46 333.499 1138.27 316.014 1103.88L309.417 1090.91L312.594 1085.7C325.558 1064.46 350.383 1036.67 376.534 1014.11C401.015 992.989 429.03 972.424 470.678 945.001C492.809 930.429 495.057 929.176 495.742 931.028C496.156 932.148 497.432 937.66 498.576 943.279ZM1210.75 931.168C1198.01 937.349 1191.9 956.791 1198.45 970.325C1206.64 987.246 1227.23 982.841 1234.21 962.676C1236.93 954.83 1236.68 942.808 1233.68 936.717C1232.32 933.943 1230.13 931.322 1228.48 930.467C1224.39 928.352 1215.87 928.689 1210.75 931.168ZM1336.43 1016.44C1343.25 1019.97 1349.74 1030.94 1353.62 1045.49C1356.01 1054.45 1357.62 1080.99 1355.78 1080.99C1353.04 1080.99 1340.92 1071.54 1331.53 1062.08C1314.36 1044.77 1310.17 1033.68 1317.08 1023.84C1322.39 1016.28 1330.28 1013.26 1336.43 1016.44ZM824.146 1025.53C826.598 1029.27 825.511 1038.16 821.599 1046.36C813.071 1064.23 796.466 1082.98 789.156 1082.99C787.507 1082.99 787.361 1082.48 787.953 1078.74C789.928 1066.32 801.262 1039.8 808.305 1031.13C814.815 1023.12 821.111 1020.9 824.146 1025.53ZM1325.42 1096.55C1330.16 1100.12 1337.74 1104.94 1342.28 1107.27C1347.62 1110 1350.53 1112.08 1350.53 1113.16C1350.54 1115.84 1344.61 1131.88 1340.8 1139.49C1331.79 1157.5 1321.51 1166.99 1311.02 1166.99C1306.29 1166.99 1302.71 1165.03 1298.1 1159.93C1284.09 1144.42 1282.82 1112.72 1295.15 1086.02C1301.46 1072.37 1300.44 1072.67 1309.22 1082C1313.4 1086.44 1320.69 1092.99 1325.42 1096.55ZM297.64 1130.77C313.297 1158.54 345.225 1197.39 374.784 1224.62C381.246 1230.58 386.522 1235.69 386.507 1235.97C386.493 1236.26 383.81 1238.39 380.546 1240.71C365.471 1251.43 353.931 1255.88 339.034 1256.7C321.745 1257.65 309.794 1253.23 297.929 1241.51C285.497 1229.23 279.534 1213.05 279.534 1191.59C279.534 1180.31 281.601 1162.14 284.117 1151.29C285.602 1144.89 291.258 1126.34 292.216 1124.73C293.004 1123.4 294.31 1124.86 297.64 1130.77ZM957.624 1153.75C962.455 1158.91 963.858 1161.25 965.628 1167.08C968.315 1175.93 967.876 1181.53 963.815 1190.21C960.314 1197.69 950.016 1209.19 942.507 1214.01C928.073 1223.27 913.973 1223.53 904.661 1214.69C888.961 1199.8 899.247 1175.81 932.878 1148.89L942.724 1141.01L947.245 1144.25C949.732 1146.03 954.403 1150.31 957.624 1153.75ZM1710.62 1153.75C1715.45 1158.91 1716.86 1161.25 1718.63 1167.08C1721.31 1175.93 1720.88 1181.53 1716.82 1190.21C1713.31 1197.69 1703.02 1209.19 1695.51 1214.01C1681.07 1223.27 1666.97 1223.53 1657.66 1214.69C1641.96 1199.8 1652.25 1175.81 1685.88 1148.89L1695.72 1141.01L1700.24 1144.25C1702.73 1146.03 1707.4 1150.31 1710.62 1153.75Z" fill="#606C95"/>
<path id="question_mark" fill-rule="evenodd" clip-rule="evenodd" d="M1461.56 807.54C1443.09 812.016 1428.76 826.525 1424.35 845.213C1421.35 857.945 1422.95 867.131 1429.26 873.437C1433.57 877.741 1439.04 879.973 1445.28 879.973C1453.59 879.973 1454.83 876.401 1449.37 868.28C1445.04 861.858 1443.72 856.353 1444.85 849.409C1445.99 842.454 1447.75 839.232 1453.19 834.221C1459.04 828.824 1466.49 826.557 1476.27 827.19C1492.29 828.228 1501.79 837.255 1501.81 851.473C1501.84 868.184 1494.43 878.378 1468.55 897.202C1445.59 913.9 1436.49 923.453 1428.68 939.051C1423.48 949.444 1422.42 957.552 1425.82 960.95C1430.29 965.422 1438.39 960.646 1443.57 950.473C1450.74 936.419 1461.51 925.164 1481.29 911.082C1505.34 893.96 1512.89 886.715 1518.38 875.493C1523.91 864.184 1525.48 848.942 1522.26 837.905C1515.59 815.103 1487.78 801.189 1461.56 807.54ZM1417.89 976.733C1414.92 979.143 1414.02 986.061 1416.24 989.452C1417.64 991.596 1418.64 991.973 1422.94 991.973C1427.2 991.973 1428.46 991.51 1430.92 989.05C1434.91 985.066 1434.85 980.998 1430.77 977.562C1427.08 974.457 1421.17 974.077 1417.89 976.733Z" fill="#DA947F"/>
</g>
</svg>
